HIERARCHY
ROOT Hips
{
	OFFSET 0.00000 0.00000 0.00000
	CHANNELS 6 Xposition Yposition Zposition Zrotation Yrotation Xrotation 
	JOINT LHipJoint
	{
		OFFSET 0 0 0
		CHANNELS 3 Zrotation Yrotation Xrotation
		JOINT LeftUpLeg
		{
			OFFSET 1.44361 -1.63093 0.70831
			CHANNELS 3 Zrotation Yrotation Xrotation
			JOINT LeftLeg
			{
				OFFSET 2.20103 -6.04728 0.00000
				CHANNELS 3 Zrotation Yrotation Xrotation
				JOINT LeftFoot
				{
					OFFSET 2.54154 -6.98283 0.00000
					CHANNELS 3 Zrotation Yrotation Xrotation
					JOINT LeftToeBase
					{
						OFFSET 0.05971 -0.16406 1.77582
						CHANNELS 3 Zrotation Yrotation Xrotation
						End Site
						{
							OFFSET 0.00000 -0.00000 0.90832
						}
					}
				}
			}
		}
	}
	JOINT RHipJoint
	{
		OFFSET 0 0 0
		CHANNELS 3 Zrotation Yrotation Xrotation
		JOINT RightUpLeg
		{
			OFFSET -1.65838 -1.63093 0.70830
			CHANNELS 3 Zrotation Yrotation Xrotation
			JOINT RightLeg
			{
				OFFSET -2.26926 -6.23475 0.00000
				CHANNELS 3 Zrotation Yrotation Xrotation
				JOINT RightFoot
				{
					OFFSET -2.34808 -6.45129 0.00000
					CHANNELS 3 Zrotation Yrotation Xrotation
					JOINT RightToeBase
					{
						OFFSET -0.18633 -0.51195 1.68539
						CHANNELS 3 Zrotation Yrotation Xrotation
						End Site
						{
							OFFSET -0.00000 -0.00000 0.88927
						}
					}
				}
			}
		}
	}
	JOINT LowerBack
	{
		OFFSET 0 0 0
		CHANNELS 3 Zrotation Yrotation Xrotation
		JOINT Spine
		{
			OFFSET -0.10393 2.01691 0.06920
			CHANNELS 3 Zrotation Yrotation Xrotation
			JOINT Spine1
			{
				OFFSET 0.04092 2.01302 -0.05283
				CHANNELS 3 Zrotation Yrotation Xrotation
				JOINT Neck
				{
					OFFSET 0 0 0
					CHANNELS 3 Zrotation Yrotation Xrotation
					JOINT Neck1
					{
						OFFSET -0.02870 1.58978 -0.03113
						CHANNELS 3 Zrotation Yrotation Xrotation
						JOINT Head
						{
							OFFSET 0.11532 1.54326 -0.29195
							CHANNELS 3 Zrotation Yrotation Xrotation
							End Site
							{
								OFFSET 0.04056 1.59999 -0.09535
							}
						}
					}
				}
				JOINT LeftShoulder
				{
					OFFSET 0 0 0
					CHANNELS 3 Zrotation Yrotation Xrotation
					JOINT LeftArm
					{
						OFFSET 3.30641 1.15764 0.01104
						CHANNELS 3 Zrotation Yrotation Xrotation
						JOINT LeftForeArm
						{
							OFFSET 4.63208 -0.00000 0.00000
							CHANNELS 3 Zrotation Yrotation Xrotation
							JOINT LeftHand
							{
								OFFSET 3.41924 -0.00000 -0.00000
								CHANNELS 3 Zrotation Yrotation Xrotation
								JOINT LeftFingerBase
								{
									OFFSET 0 0 0
									CHANNELS 3 Zrotation Yrotation Xrotation
									JOINT LeftHandIndex1
									{
										OFFSET 0.62537 -0.00000 -0.00000
										CHANNELS 3 Zrotation Yrotation Xrotation
										End Site
										{
											OFFSET 0.50419 -0.00000 -0.00000
										}
									}
								}
								JOINT LThumb
								{
									OFFSET 0 0 0
									CHANNELS 3 Zrotation Yrotation Xrotation
									End Site
									{
										OFFSET 0.51189 -0.00000 0.51189
									}
								}
							}
						}
					}
				}
				JOINT RightShoulder
				{
					OFFSET 0 0 0
					CHANNELS 3 Zrotation Yrotation Xrotation
					JOINT RightArm
					{
						OFFSET -3.78081 1.02180 -0.16609
						CHANNELS 3 Zrotation Yrotation Xrotation
						JOINT RightForeArm
						{
							OFFSET -4.40640 -0.00000 -0.00000
							CHANNELS 3 Zrotation Yrotation Xrotation
							JOINT RightHand
							{
								OFFSET -3.44675 -0.00000 0.00000
								CHANNELS 3 Zrotation Yrotation Xrotation
								JOINT RightFingerBase
								{
									OFFSET 0 0 0
									CHANNELS 3 Zrotation Yrotation Xrotation
									JOINT RightHandIndex1
									{
										OFFSET -0.51367 -0.00000 -0.00000
										CHANNELS 3 Zrotation Yrotation Xrotation
										End Site
										{
											OFFSET -0.41414 -0.00000 -0.00000
										}
									}
								}
								JOINT RThumb
								{
									OFFSET 0 0 0
									CHANNELS 3 Zrotation Yrotation Xrotation
									End Site
									{
										OFFSET -0.42046 -0.00000 0.42046
									}
								}
							}
						}
					}
				}
			}
		}
	}
}
MOTION
Frames: 14
Frame Time: .0083333
9.6151 16.7954 -35.8305 0 0 0 0 0 0 -21 0 0 0 0 0 0 0 0 0 0 0 0 0 0 21 0 0 0 0 0 0 0 0 0 0 0 0 0 0 0 0 0 0 0 0 0 0 -16 0 0 21 0 0 11 0 0 0 -8 0 0 0 0 0 0 0 0 0 0 0 0 0 0 0 0 0 0 0 0 8 0 0 0 0 0 0 0 0 0 0 0 0 0 0 0 0 0
9.6151 16.7954 -35.8305 -0.4993 -6.5461 10.5836 0.0000 0.0000 0.0000 -16.9313 -9.3821 -3.1370 0.1019 2.0583 5.6668 0.9169 8.3848 -22.9807 2.0466 -8.9624 -25.6778 0.0000 0.0000 0.0000 15.1484 8.4761 -7.7259 -0.3599 -3.8538 10.6656 -0.6699 3.4996 -14.6707 -0.2180 -3.0056 8.2942 -5.6076 0.9981 -7.4355 1.1755 1.7991 1.3610 4.6017 0.6920 5.3950 -8.5411 -0.4076 -3.7025 12.1472 -1.4496 14.0629 5.1667 -0.4355 4.9160 -0.0000 -0.0000 0.0000 -89.7056 -3.2960 16.7627 7.2595 -12.3455 -0.7862 -0.0000 -0.0000 34.4156 26.3265 -20.4278 -9.7984 -7.1250 0.0000 -0.0000 -1.3829 7.4199 1.1931 -0.0000 -0.0000 0.0000 89.5247 -0.0843 -23.6363 -8.3566 14.1293 -1.0374 0.0000 0.0000 32.7014 -22.8238 -39.1195 14.8706 7.1250 -0.0000 -0.0000 18.8581 -70.5866 -11.6524
9.5994 16.7965 -35.8447 -0.0413 -6.6304 10.4040 0.0000 0.0000 0.0000 -17.4143 -9.2651 -3.0302 0.0999 2.0382 5.6113 0.8614 8.7499 -22.7910 2.8279 -10.4110 -30.3183 0.0000 0.0000 0.0000 14.6870 8.6054 -7.8674 -0.3927 -4.0237 11.1434 -0.8731 3.1157 -16.8806 -0.4050 4.0857 -11.3180 -6.0493 0.9604 -7.1120 1.1386 1.7731 1.4128 4.8003 0.6695 5.2591 -6.8098 0.5764 -1.3810 9.9673 0.1098 11.1173 4.1794 0.2070 3.4870 -0.0000 0.0000 0.0000 -89.8414 -3.4595 17.3673 7.4697 -12.6897 -0.8317 -0.0000 -0.0000 33.8203 26.4303 -20.8177 -10.0182 -7.1250 0.0000 -0.0000 -1.3619 6.9792 1.1866 -0.0000 0.0000 0.0000 89.4332 0.1650 -23.3564 -8.3177 14.0665 -1.0280 0.0000 0.0000 32.8072 -23.3939 -39.3771 15.3474 7.1250 -0.0000 -0.0000 18.4924 -71.0112 -11.5938
9.5800 16.7972 -35.8584 0.3645 -6.7130 10.2154 0.0000 0.0000 0.0000 -17.8096 -9.2038 -2.9271 0.0994 2.0331 5.5972 0.7563 9.3617 -22.3717 3.8614 -11.9737 -35.6391 0.0000 0.0000 0.0000 14.3028 8.8146 -8.0455 -0.4375 -4.2444 11.7652 -1.1333 3.0707 -19.3344 -1.5781 7.9256 -22.4883 -6.4718 0.9786 -6.7631 1.1337 1.8132 1.4513 5.0280 0.6820 5.0859 -3.5541 1.6733 2.0951 4.6884 1.9288 8.3850 2.1415 0.9602 2.2144 -0.0000 -0.0000 0.0000 -89.9255 -3.6349 18.2911 7.6743 -13.0235 -0.8773 -0.0000 -0.0000 33.0093 26.0540 -21.0173 -9.9454 -7.1250 0.0000 -0.0000 -1.6233 6.8325 1.4192 -0.0000 -0.0000 0.0000 89.3600 0.4027 -23.9687 -8.2396 13.9406 -1.0091 0.0000 0.0000 33.4383 -23.8437 -39.5909 15.7307 7.1250 -0.0000 -0.0000 18.2181 -71.3576 -11.5563
9.5586 16.7960 -35.8688 0.5913 -6.7257 10.1069 0.0000 0.0000 0.0000 -17.9533 -9.1922 -2.9176 0.1004 2.0434 5.6257 0.7019 9.6540 -22.1343 4.7108 -13.0505 -39.5580 0.0000 0.0000 0.0000 14.0602 9.2424 -8.1819 -0.4516 -4.3115 11.9547 -1.3128 3.1549 -20.8520 -3.7510 11.8215 -35.1034 -6.6113 1.0217 -6.6784 1.1336 1.8802 1.5626 5.1133 0.7057 5.1428 -4.2520 1.6776 1.8502 5.9568 1.8559 8.5618 2.7014 0.9354 2.3136 0.0000 -0.0000 0.0000 -89.8707 -3.8597 19.8026 7.9144 -13.4141 -0.9322 -0.0000 -0.0000 31.6550 25.3293 -20.8370 -9.5570 -7.1250 0.0000 -0.0000 -2.0623 7.1569 1.7905 0.0000 -0.0000 0.0000 89.3512 0.5396 -24.4681 -8.2367 13.9358 -1.0084 0.0000 0.0000 33.8281 -23.8693 -39.2174 15.6304 7.1250 -0.0000 -0.0000 17.6360 -71.0230 -11.0506
9.5328 16.7941 -35.8782 0.8630 -6.8098 9.9375 0.0000 0.0000 0.0000 -18.1464 -9.0758 -2.8797 0.1029 2.0682 5.6942 0.7116 9.5626 -22.1413 5.2691 -13.6806 -41.9729 0.0000 0.0000 0.0000 13.8415 9.3777 -8.3775 -0.4974 -4.5215 12.5488 -1.6897 3.5849 -23.6909 -3.8806 11.9998 -35.7312 -6.6769 1.0380 -6.1026 1.0459 1.8655 1.4016 5.0333 0.7218 4.6488 -5.0500 1.4308 0.6851 7.7210 1.3954 9.7616 3.5074 0.7501 2.9609 -0.0000 0.0000 0.0000 -89.6758 -3.4864 21.3272 8.2537 -13.9633 -1.0125 -0.0000 -0.0000 30.1480 25.0482 -20.2377 -9.1829 -7.1250 0.0000 -0.0000 -2.1773 7.8491 1.8610 -0.0000 0.0000 0.0000 89.4577 0.0629 -23.9616 -8.3162 14.0641 -1.0276 0.0000 0.0000 33.3763 -24.2425 -39.1645 15.8753 7.1250 -0.0000 -0.0000 17.0661 -71.0986 -10.7152
9.5013 16.7917 -35.8887 1.1095 -6.9220 9.6788 0.0000 0.0000 0.0000 -18.3213 -9.0072 -2.6897 0.1048 2.0879 5.7485 0.7207 9.5498 -22.2137 5.7473 -14.1789 -43.9590 0.0000 0.0000 0.0000 13.7162 9.7078 -8.4095 -0.5449 -4.7293 13.1381 -2.1223 3.9353 -26.6124 -3.6197 11.6364 -34.4577 -6.9151 1.0472 -5.9105 1.1323 1.8846 1.5961 5.2588 0.7145 4.7331 -4.2270 1.0187 -0.5254 6.9102 0.8793 10.7073 3.1024 0.5241 3.5496 -0.0000 0.0000 0.0000 -89.7338 -3.6518 22.4349 8.5216 -14.3948 -1.0781 -0.0000 -0.0000 29.2324 25.2271 -20.2154 -9.2468 -7.1250 0.0000 -0.0000 -2.0607 7.8424 1.7614 -0.0000 0.0000 0.0000 89.2814 0.2319 -24.3103 -8.2604 13.9741 -1.0141 0.0000 0.0000 33.5341 -23.9341 -39.9217 15.8989 7.1250 -0.0000 -0.0000 18.6020 -71.6902 -11.9399
9.4787 16.7795 -35.8781 1.6009 -5.9740 9.5922 0.0000 0.0000 0.0000 -18.8100 -9.8370 -2.5501 0.1127 2.1645 5.9606 0.7202 9.4086 -22.0832 6.0942 -14.5190 -45.3587 0.0000 0.0000 0.0000 13.1499 10.0626 -7.9310 -0.4631 -4.3652 12.1064 -2.8345 5.6716 -30.6731 -2.2014 9.2736 -26.6549 -7.0025 0.7057 -5.6594 1.0960 1.4155 1.5124 5.2193 0.4889 4.5678 -4.9376 0.4813 -6.6957 8.3702 -0.2443 19.2856 3.5318 0.2283 6.9679 0.0000 -0.0000 0.0000 -89.6718 -3.5075 23.1543 8.7204 -14.7138 -1.1281 -0.0000 -0.0000 28.7815 25.5538 -20.8077 -9.6395 -7.1250 0.0000 -0.0000 -1.9166 7.1485 1.6642 0.0000 -0.0000 0.0000 89.2581 -0.0747 -24.4392 -8.2248 13.9166 -1.0055 0.0000 0.0000 33.2688 -23.5576 -39.7788 15.5875 7.1250 -0.0000 -0.0000 18.8794 -71.4326 -12.0157
9.4554 16.7679 -35.8661 2.4342 -5.0178 9.4443 0.0000 0.0000 0.0000 -19.7376 -10.6846 -2.3976 0.1240 2.2702 6.2529 0.7828 8.8858 -22.2019 6.1184 -14.5421 -45.4552 0.0000 0.0000 0.0000 12.3805 8.7372 -8.0394 -0.5707 -4.8382 13.4475 -3.1018 4.0337 -32.4304 -3.1022 10.8586 -31.8045 -7.3131 0.3715 -5.8064 0.9127 1.0196 1.7072 5.1722 0.2666 4.9129 -4.8633 -0.1679 -11.2141 8.3866 -1.3194 24.4930 3.6105 -0.1462 9.6441 0.0000 0.0000 0.0000 -89.6106 -3.8474 23.6393 8.8369 -14.9001 -1.1578 -0.0000 -0.0000 28.7347 25.6797 -20.8730 -9.7215 -7.1250 0.0000 -0.0000 -1.8440 7.0557 1.6044 0.0000 0.0000 0.0000 89.4126 -0.1540 -22.9867 -8.4385 14.2612 -1.0575 0.0000 0.0000 31.3092 -24.8914 -38.8971 16.2439 7.1250 -0.0000 -0.0000 15.8229 -71.0662 -9.9106
9.4274 16.7556 -35.8538 3.4872 -4.2221 9.2628 0.0000 0.0000 0.0000 -20.9461 -11.4251 -2.2046 0.1348 2.3668 6.5206 0.8371 8.4512 -22.3309 6.1594 -14.5810 -45.6181 0.0000 0.0000 0.0000 11.3358 7.8628 -8.4000 -0.6911 -5.3147 14.8084 -3.2783 2.8259 -33.6313 -3.8418 11.9468 -35.5440 -7.8335 0.1057 -5.6740 0.6441 0.7072 1.7293 5.1513 0.0998 4.9065 -6.5345 0.1702 -11.1136 11.0380 -1.1966 25.1398 4.8938 0.0437 9.8501 0.0000 -0.0000 0.0000 -89.4952 -3.8865 24.2437 8.9532 -15.0858 -1.1879 -0.0000 -0.0000 28.6692 25.5397 -20.5899 -9.5389 -7.1250 0.0000 -0.0000 -1.9016 7.3854 1.6423 0.0000 -0.0000 0.0000 89.5949 -0.4089 -22.8013 -8.5336 14.4141 -1.0811 0.0000 0.0000 30.7911 -35.8204 -54.1724 30.3358 7.1250 -0.0000 -0.0000 86.3503 -85.5355 -81.8703
9.3892 16.7448 -35.8492 4.2854 -3.7833 9.1000 0.0000 0.0000 0.0000 -21.7599 -11.6988 -2.1380 0.1448 2.4523 6.7573 0.8422 8.2820 -22.2397 6.5444 -14.9359 -47.1295 0.0000 0.0000 0.0000 10.5383 8.0710 -8.2371 -0.6839 -5.2875 14.7305 -3.2248 3.0282 -33.3008 -3.6297 11.6507 -34.5071 -8.2322 -0.0728 -5.3963 0.5036 0.4785 1.6924 5.2030 -0.0152 4.7442 -7.1324 0.3962 -11.2268 11.8611 -1.0229 26.0914 5.3701 0.1641 10.1947 0.0000 0.0000 0.0000 -89.4918 -3.9157 24.5258 9.0251 -15.2004 -1.2067 -0.0000 -0.0000 28.6787 25.4543 -20.4064 -9.4234 -7.1250 0.0000 -0.0000 -1.9360 7.5978 1.6640 0.0000 0.0000 0.0000 89.5831 -0.6542 -23.3608 -8.5109 14.3775 -1.0754 0.0000 0.0000 31.2852 -23.6913 -41.8247 16.3099 7.1250 -0.0000 -0.0000 22.1888 -73.3024 -15.0724
9.3304 16.7373 -35.8640 4.5459 -4.1119 9.0307 0.0000 0.0000 0.0000 -21.7280 -11.3047 -2.4884 0.1618 2.5916 7.1437 0.9180 7.7708 -22.5124 6.8142 -15.1734 -48.1680 0.0000 0.0000 0.0000 10.5987 8.4592 -8.6732 -0.8115 -5.7485 16.0565 -3.3702 2.0314 -34.3035 -4.2285 12.4584 -37.3736 -8.4394 -0.0193 -5.2234 0.6063 0.5454 1.7273 5.4332 0.0122 4.6716 -7.2599 0.5689 -11.4069 11.6806 -0.7584 27.0057 5.4076 0.2604 10.5339 0.0000 0.0000 0.0000 -89.6439 -4.1314 24.4580 9.1061 -15.3294 -1.2280 -0.0000 -0.0000 28.6749 25.4666 -20.2303 -9.3520 -7.1250 0.0000 -0.0000 -1.9093 7.7851 1.6340 0.0000 0.0000 0.0000 89.4236 -0.9163 -22.8385 -8.6112 14.5386 -1.1005 0.0000 0.0000 30.9313 -34.6166 -52.5865 28.7347 7.1250 -0.0000 -0.0000 63.9010 -85.1566 -59.4588
9.2529 16.7349 -35.8986 4.4746 -5.2079 9.0711 0.0000 0.0000 0.0000 -21.1628 -10.5851 -3.1321 0.1830 2.7550 7.5975 1.0215 7.2710 -23.0378 7.1499 -15.4568 -49.4390 0.0000 0.0000 0.0000 10.9815 10.5394 -9.1012 -0.8649 -5.9301 16.5817 -3.3302 2.5499 -33.9695 -4.0615 12.2418 -36.5928 -8.5918 0.3577 -5.1454 0.7833 1.0473 1.8047 5.7501 0.2532 4.6257 -6.5946 0.6414 -11.5482 10.4525 -0.5106 27.6939 4.8967 0.3067 10.7964 -0.0000 -0.0000 0.0000 -89.6678 -4.3560 24.8584 9.2678 -15.5863 -1.2711 -0.0000 -0.0000 28.3096 25.6726 -20.1189 -9.3883 -7.1250 0.0000 -0.0000 -1.7657 7.8694 1.5081 -0.0000 -0.0000 0.0000 89.3806 -1.1486 -21.7769 -8.7870 14.8203 -1.1450 0.0000 0.0000 29.6739 -28.8734 -47.4787 22.1175 7.1250 -0.0000 -0.0000 30.7294 -79.9302 -25.1936
9.2006 16.7287 -35.8981 4.9583 -5.0263 8.9731 0.0000 0.0000 0.0000 -21.5262 -10.8820 -3.2991 0.2090 2.9436 8.1218 1.0451 7.1200 -23.1299 7.5742 -15.7969 -51.0140 0.0000 0.0000 0.0000 10.7070 10.1786 -9.3731 -0.9609 -6.2415 17.4868 -3.2857 1.3288 -34.0339 -5.2248 13.6326 -41.7852 -8.7287 0.2833 -5.1610 0.7671 0.9662 1.9452 5.8057 0.1964 4.7960 -5.7713 0.8590 -11.3934 9.1335 -0.0511 28.0917 4.3286 0.4473 10.8784 -0.0000 0.0000 0.0000 -89.6876 -4.4045 25.1102 9.4503 -15.8752 -1.3206 -0.0000 -0.0000 28.0635 25.8516 -20.1920 -9.4945 -7.1250 0.0000 -0.0000 -1.6593 7.7592 1.4207 -0.0000 0.0000 0.0000 89.3514 -1.4377 -20.8221 -8.9333 15.0541 -1.1827 0.0000 0.0000 28.3189 -24.4556 -42.4014 17.0495 7.1250 -0.0000 -0.0000 22.2937 -74.0787 -15.5121
